<svg xmlns="http://www.w3.org/2000/svg" width="337" height="341" viewBox="54 52 337 341"><g stroke="#000" stroke-linecap="round" stroke-linejoin="round" stroke-width="14.61"><path stroke-linecap="butt" d="M220.65 60.24a24.36 24.36 0 0 0-22.5 24.36 24.36 24.36 0 0 0 48.7 0 24.36 24.36 0 0 0-26.2-24.36zm1.85 48.71c-107.17 38.97-102.3 136.4-48.71 151.02 0 0-24.36 14.6-24.36 38.97 0 0-4.87 4.87 0 19.48 24.36 24.36 121.78 24.36 146.14 0 4.87-14.61 0-19.48 0-19.48 0-24.36-24.36-38.97-24.36-38.97 53.59-14.62 58.46-112.05-48.71-151.02zm0 228.96c-33.03 23.67-98.5 10.03-131.53 19.48 0 0-16.07 5.26-29.22 19.49 6.62 9.45 16.07 9.64 29.22 4.87 33.03-9.45 98.5 4.48 131.53-9.74 33.03 14.22 98.5.29 131.53 9.74 13.15 4.77 22.6 4.58 29.22-4.87-13.15-14.23-29.22-19.49-29.22-19.49-33.03-9.45-98.5 4.2-131.53-19.48z"/><path stroke="#fff" stroke-linejoin="miter" d="M173.79 259.97h97.42m-121.78 38.97h146.14M222.5 157.67v48.71m-24.36-24.36h48.72"/></g></svg>
