<svg xmlns="http://www.w3.org/2000/svg" width="335" height="340" viewBox="55 52 335 340"><g stroke="#000" stroke-linecap="round" stroke-linejoin="round" stroke-width="14.48"><path stroke-linejoin="miter" d="M222.57 114.5V60.17"/><path d="M222.57 118.07c-19.3 0-28.95 24.13-28.95 24.13-5.31 10.61-2.8 27.2 2.5 43.9-37.63-37.92-98.43-43.71-127.95 4.34-28.95 57.9 57.9 101.33 57.9 101.33v67.55c53.07 33.78 139.92 33.78 193 0v-67.55s86.85-43.42 57.9-101.32c-29.63-48.06-90.33-42.27-127.96-4.35 5.3-16.7 7.81-33.2 2.5-43.9 0 0-9.64-24.13-28.94-24.13"/><path stroke-linejoin="miter" d="M198.44 79.47h48.25"/><path stroke="#fff" d="M314.24 286.95s82.03-38.6 58.19-93.13c-37.44-56.45-125.74-17.85-149.86 44.88v20.26-20.26c-24.13-62.73-112.43-101.33-149.87-44.88-23.83 54.53 58.19 93.13 58.19 93.13"/><path stroke="#fff" d="M126.07 291.77c53.07-28.95 139.92-28.95 193 0m-193 33.78c53.07-28.96 139.92-28.96 193 0m-193 33.77c53.07-28.95 139.92-28.95 193 0"/></g></svg>
