<svg xmlns="http://www.w3.org/2000/svg" width="341" height="340" viewBox="52 53 341 340"><g fill="#fff" stroke="#000" stroke-linecap="round" stroke-linejoin="round" stroke-width="15.18"><path fill="#000" d="M212.33 60.68c-17.4 10.12-25.3 30.36-25.3 30.36h-20.24s-20.24-35.42-30.36-25.3c0 10.12-2.33 20.24 5.06 30.36-1.11 16.2-20.24 35.42-20.24 35.42s-60.72 101.2-60.72 121.44c0 50.6 30.36 40.48 40.48 40.48 12.04-7.8 0-20.24 10.12-20.24 14.27-.4-10.52 20.85 0 30.36 22.06 3.44 20.24-20.24 50.6-40.48 18.52-12.35 56.67-40.58 73.17-66.39 6.07 119.42-83.29 102.21-83.29 187.83h232.76C389.43 172 328.71 101.16 222.45 91.04c0 0 0-30.36-10.12-30.36"/><path stroke="#fff" d="M101.01 247.9a5.06 5.06 0 1 1-10.12 0 5.06 5.06 0 0 1 10.12 0"/><path stroke="#fff" d="M150.83 149.25a36 36 0 0 1-6.65 8.56c-2.24 1.99-4.16 2.73-5.32 2.06s-1.48-2.7-.87-5.64c.6-2.94 2.07-6.55 4.08-10.04a36 36 0 0 1 6.65-8.55c2.25-2 4.16-2.74 5.32-2.07s1.48 2.7.88 5.64a36 36 0 0 1-4.09 10.04"/><path stroke="none" d="m248.26 95.09-4.56 14.67 5.06 1.52c31.88 10.12 57.18 25.2 79.95 68.31s32.89 104.34 27.83 204.93l-.5 5.06h22.76l.51-5.06c5.06-101.8-8.9-170.52-32.89-215.96-23.98-45.44-58.6-67.2-93-72.46Z"/></g></svg>
