<svg xmlns="http://www.w3.org/2000/svg" width="340" height="317" viewBox="52 64 340 317"><g stroke="#000" stroke-linecap="round" stroke-linejoin="round" stroke-width="13.2"><path stroke-linecap="butt" d="M103.49 246.73c74.8-13.2 184.8-13.2 237.6 0l22-110-66 101.2-2.64-124.08-45.76 119.68-26.4-127.6-26.4 127.6-45.76-119.68-2.64 124.08-66-101.2Z"/><path d="M103.49 246.73c0 17.6 13.2 17.6 22 35.2 8.8 13.2 8.8 8.8 4.4 30.8-13.2 8.8-8.8 22-8.8 22-13.2 13.2 0 22 0 22 57.2 8.8 145.2 8.8 202.4 0 0 0 13.2-8.8 0-22 0 0 4.4-13.2-8.8-22-4.4-22-4.4-17.6 4.4-30.8 8.8-17.6 22-17.6 22-35.2-74.8-13.2-162.8-13.2-237.6 0"/><path d="M125.49 281.93c30.8-8.8 162.8-8.8 193.6 0m-189.2 30.8c52.8-8.8 132-8.8 184.8 0"/><circle cx="77.09" cy="123.53" r="17.6"/><circle cx="147.49" cy="97.13" r="17.6"/><circle cx="222.29" cy="88.33" r="17.6"/><circle cx="297.09" cy="97.13" r="17.6"/><circle cx="367.49" cy="123.53" r="17.6"/><path stroke-linecap="butt" d="M121.09 356.73a308 308 0 0 0 202.4 0"/><path stroke="#fff" d="M121.09 273.13a308 308 0 0 1 202.4 0m-189.2 22h176m-184.8 26.4a308 308 0 0 0 193.6 0m-202.4 26.4a308 308 0 0 0 211.2 0"/></g></svg>
