<svg xmlns="http://www.w3.org/2000/svg" width="337" height="340" viewBox="54 52 337 340"><g stroke="#000" stroke-linecap="round" stroke-linejoin="round" stroke-width="14.61"><path fill="#fff" stroke-linecap="butt" d="M220.6 60.21a24.35 24.35 0 0 0-22.49 24.35 24.35 24.35 0 0 0 48.7 0 24.35 24.35 0 0 0-26.2-24.35zm1.86 48.7c-107.14 38.96-102.27 136.36-48.7 150.97 0 0-24.35 14.61-24.35 38.96 0 0-4.87 4.87 0 19.48 24.35 24.35 121.75 24.35 146.1 0 4.87-14.61 0-19.48 0-19.48 0-24.35-24.35-38.96-24.35-38.96 53.57-14.61 58.44-112.01-48.7-150.97zm0 228.89c-33.02 23.67-98.47 10.03-131.49 19.48 0 0-16.07 5.26-29.22 19.48 6.62 9.45 16.07 9.64 29.22 4.87 33.02-9.45 98.47 4.48 131.49-9.74 33.02 14.22 98.47.3 131.49 9.74 13.15 4.77 22.6 4.58 29.22-4.87-13.15-14.22-29.22-19.48-29.22-19.48-33.02-9.45-98.47 4.19-131.49-19.48z"/><path stroke-linejoin="miter" d="M173.76 259.88h97.4m-121.75 38.96h146.1m-73.05-141.23v48.7m-24.35-24.35h48.7"/></g></svg>
