<svg xmlns="http://www.w3.org/2000/svg" width="335" height="340" viewBox="55 52 335 340"><g fill="#fff" stroke="#000" stroke-linecap="round" stroke-linejoin="round" stroke-width="14.48"><path stroke-linejoin="miter" d="M222.57 114.5V60.17m-24.13 19.3h48.25"/><path stroke-linecap="butt" stroke-linejoin="miter" d="M222.57 243.52s43.42-72.37 28.95-101.32c0 0-9.66-24.13-28.96-24.13s-28.95 24.13-28.95 24.13c-14.47 28.95 28.96 101.32 28.96 101.32"/><path d="M126.07 359.32c53.07 33.78 139.92 33.78 193 0v-67.55s86.85-43.42 57.9-101.32c-38.6-62.73-130.28-33.78-154.4 38.6v33.77-33.77c-24.13-72.38-115.8-101.33-154.4-38.6-28.96 57.9 57.9 101.32 57.9 101.32z"/><path fill="none" d="M126.07 291.77c53.07-28.95 139.92-28.95 193 0m-193 33.78c53.07-28.96 139.92-28.96 193 0m-193 33.77c53.07-28.95 139.92-28.95 193 0"/></g></svg>
