<svg xmlns="http://www.w3.org/2000/svg" width="341" height="340" viewBox="52 53 341 340"><g stroke="#000" stroke-linecap="round" stroke-linejoin="round" stroke-width="15.18"><path fill="#fff" d="M212.33 60.68c-17.4 10.12-25.3 30.36-25.3 30.36h-20.24s-20.24-35.42-30.36-25.3c0 10.12-2.33 20.24 5.06 30.36-1.11 16.2-20.24 35.42-20.24 35.42s-60.72 101.2-60.72 121.44c0 50.6 30.36 40.48 40.48 40.48 12.04-7.8 0-20.24 10.12-20.24 14.27-.4-10.52 20.85 0 30.36 22.06 3.44 20.24-20.24 50.6-40.48 18.52-12.35 56.67-40.58 73.17-66.39 6.07 119.42-83.29 102.21-83.29 187.83h232.76C389.43 172 328.71 101.16 222.45 91.04c0 0 0-30.36-10.12-30.36"/><path d="M95.95 247.9a5.06 5.06 0 1 1-10.12 0 5.06 5.06 0 1 1 10.12 0"/><path d="M150.89 149.26a5.06 15.18 30 1 1-8.77-5.06 5.06 15.18 30 1 1 8.77 5.06"/></g></svg>
