<svg xmlns="http://www.w3.org/2000/svg" width="377" height="340" viewBox="34 52 377 340"><g fill="#fff" stroke="#000" stroke-linejoin="round" stroke-width="14.64"><path d="M90.64 255.32c82.96-14.64 204.96-14.64 263.52 0l24.4-122-73.2 112.24-2.93-137.62-50.75 132.74L222.4 99.16l-29.28 141.52-50.75-132.74-2.93 137.62-73.2-112.24Z"/><path d="M90.64 255.32c0 19.52 14.64 19.52 24.4 39.04 9.76 14.64 9.76 9.76 4.88 34.16-14.64 9.76-9.76 24.4-9.76 24.4-14.64 14.64 0 24.4 0 24.4 63.44 9.76 161.04 9.76 224.48 0 0 0 14.64-9.76 0-24.4 0 0 4.88-14.64-9.76-24.4-4.88-24.4-4.88-19.52 4.88-34.16 9.76-19.52 24.4-19.52 24.4-39.04-82.96-14.64-180.56-14.64-263.52 0Z"/><path d="M115.04 294.36c34.16-9.76 180.56-9.76 214.72 0m-209.84 34.16c58.56-9.76 146.4-9.76 204.96 0"/><circle cx="61.36" cy="118.68" r="19.52"/><circle cx="139.44" cy="89.4" r="19.52"/><circle cx="222.4" cy="79.64" r="19.52"/><circle cx="305.36" cy="89.4" r="19.52"/><circle cx="383.44" cy="118.68" r="19.52"/></g></svg>
